<mxfile host="app.diagrams.net" modified="2021-10-29T02:45:57.631Z" agent="5.0 (Windows NT 10.0; Win64; x64) AppleWebKit/537.36 (KHTML, like Gecko) Chrome/95.0.4638.54 Safari/537.36" etag="IoJIHoCEJ0bu8Tcrwp2L" version="15.6.2" type="github">
  <diagram id="Vb3b1w7tOggZKiGW4i6m" name="Page-1">
    <mxGraphModel dx="1673" dy="2103" grid="1" gridSize="10" guides="1" tooltips="1" connect="1" arrows="1" fold="1" page="1" pageScale="1" pageWidth="827" pageHeight="1169" math="0" shadow="0">
      <root>
        <mxCell id="0" />
        <mxCell id="1" parent="0" />
        <mxCell id="Z9xd57F3fZL-k_UrVPD2-34" style="edgeStyle=orthogonalEdgeStyle;rounded=0;orthogonalLoop=1;jettySize=auto;html=1;entryX=0.5;entryY=0;entryDx=0;entryDy=0;" edge="1" parent="1" source="Z9xd57F3fZL-k_UrVPD2-22" target="Z9xd57F3fZL-k_UrVPD2-23">
          <mxGeometry relative="1" as="geometry" />
        </mxCell>
        <mxCell id="Z9xd57F3fZL-k_UrVPD2-22" value="" style="ellipse;html=1;shape=endState;fillColor=#000000;strokeColor=#ff0000;" vertex="1" parent="1">
          <mxGeometry x="370" y="100" width="30" height="30" as="geometry" />
        </mxCell>
        <mxCell id="Z9xd57F3fZL-k_UrVPD2-35" style="edgeStyle=orthogonalEdgeStyle;rounded=0;orthogonalLoop=1;jettySize=auto;html=1;" edge="1" parent="1" source="Z9xd57F3fZL-k_UrVPD2-23" target="Z9xd57F3fZL-k_UrVPD2-25">
          <mxGeometry relative="1" as="geometry" />
        </mxCell>
        <mxCell id="Z9xd57F3fZL-k_UrVPD2-23" value="Màn hình Đăng nhập" style="rounded=1;whiteSpace=wrap;html=1;arcSize=40;fontColor=#000000;fillColor=#ffffc0;strokeColor=#ff0000;" vertex="1" parent="1">
          <mxGeometry x="325" y="160" width="120" height="40" as="geometry" />
        </mxCell>
        <mxCell id="Z9xd57F3fZL-k_UrVPD2-37" style="edgeStyle=orthogonalEdgeStyle;rounded=0;orthogonalLoop=1;jettySize=auto;html=1;entryX=0.5;entryY=0;entryDx=0;entryDy=0;" edge="1" parent="1" source="Z9xd57F3fZL-k_UrVPD2-25" target="Z9xd57F3fZL-k_UrVPD2-26">
          <mxGeometry relative="1" as="geometry" />
        </mxCell>
        <mxCell id="Z9xd57F3fZL-k_UrVPD2-25" value="Nhập đày đủ tài khoản mật khẩu" style="rounded=1;whiteSpace=wrap;html=1;arcSize=40;fontColor=#000000;fillColor=#ffffc0;strokeColor=#ff0000;" vertex="1" parent="1">
          <mxGeometry x="325" y="240" width="120" height="40" as="geometry" />
        </mxCell>
        <mxCell id="Z9xd57F3fZL-k_UrVPD2-38" style="edgeStyle=orthogonalEdgeStyle;rounded=0;orthogonalLoop=1;jettySize=auto;html=1;entryX=0;entryY=0.5;entryDx=0;entryDy=0;" edge="1" parent="1" source="Z9xd57F3fZL-k_UrVPD2-26" target="Z9xd57F3fZL-k_UrVPD2-31">
          <mxGeometry relative="1" as="geometry" />
        </mxCell>
        <mxCell id="Z9xd57F3fZL-k_UrVPD2-39" style="edgeStyle=orthogonalEdgeStyle;rounded=0;orthogonalLoop=1;jettySize=auto;html=1;entryX=0.5;entryY=0;entryDx=0;entryDy=0;" edge="1" parent="1" source="Z9xd57F3fZL-k_UrVPD2-26" target="Z9xd57F3fZL-k_UrVPD2-32">
          <mxGeometry relative="1" as="geometry" />
        </mxCell>
        <mxCell id="Z9xd57F3fZL-k_UrVPD2-26" value="Đăng nhập" style="rhombus;whiteSpace=wrap;html=1;fillColor=#ffffc0;strokeColor=#ff0000;" vertex="1" parent="1">
          <mxGeometry x="332.5" y="325" width="105" height="50" as="geometry" />
        </mxCell>
        <mxCell id="Z9xd57F3fZL-k_UrVPD2-45" style="edgeStyle=orthogonalEdgeStyle;rounded=0;orthogonalLoop=1;jettySize=auto;html=1;entryX=1;entryY=0.5;entryDx=0;entryDy=0;" edge="1" parent="1" source="Z9xd57F3fZL-k_UrVPD2-31" target="Z9xd57F3fZL-k_UrVPD2-25">
          <mxGeometry relative="1" as="geometry">
            <mxPoint x="450" y="260" as="targetPoint" />
            <Array as="points">
              <mxPoint x="580" y="260" />
            </Array>
          </mxGeometry>
        </mxCell>
        <mxCell id="Z9xd57F3fZL-k_UrVPD2-31" value="Thông báo tài khoản hoặc mật khẩu không chính xác" style="rounded=1;whiteSpace=wrap;html=1;arcSize=40;fontColor=#000000;fillColor=#ffffc0;strokeColor=#ff0000;" vertex="1" parent="1">
          <mxGeometry x="510" y="325" width="140" height="50" as="geometry" />
        </mxCell>
        <mxCell id="Z9xd57F3fZL-k_UrVPD2-40" style="edgeStyle=orthogonalEdgeStyle;rounded=0;orthogonalLoop=1;jettySize=auto;html=1;" edge="1" parent="1" source="Z9xd57F3fZL-k_UrVPD2-32" target="Z9xd57F3fZL-k_UrVPD2-33">
          <mxGeometry relative="1" as="geometry" />
        </mxCell>
        <mxCell id="Z9xd57F3fZL-k_UrVPD2-32" value="Màn hình Trang chủ" style="rounded=1;whiteSpace=wrap;html=1;arcSize=40;fontColor=#000000;fillColor=#ffffc0;strokeColor=#ff0000;" vertex="1" parent="1">
          <mxGeometry x="324.25" y="420" width="120" height="40" as="geometry" />
        </mxCell>
        <mxCell id="Z9xd57F3fZL-k_UrVPD2-33" value="" style="ellipse;html=1;shape=endState;fillColor=#000000;strokeColor=#ff0000;" vertex="1" parent="1">
          <mxGeometry x="549.25" y="425" width="30" height="30" as="geometry" />
        </mxCell>
        <mxCell id="Z9xd57F3fZL-k_UrVPD2-46" value="Đúng" style="text;strokeColor=none;fillColor=none;align=left;verticalAlign=top;spacingLeft=4;spacingRight=4;overflow=hidden;rotatable=0;points=[[0,0.5],[1,0.5]];portConstraint=eastwest;" vertex="1" parent="1">
          <mxGeometry x="390" y="380" width="100" height="26" as="geometry" />
        </mxCell>
        <mxCell id="Z9xd57F3fZL-k_UrVPD2-47" value="Sai" style="text;strokeColor=none;fillColor=none;align=left;verticalAlign=top;spacingLeft=4;spacingRight=4;overflow=hidden;rotatable=0;points=[[0,0.5],[1,0.5]];portConstraint=eastwest;" vertex="1" parent="1">
          <mxGeometry x="425" y="320" width="100" height="26" as="geometry" />
        </mxCell>
        <mxCell id="Z9xd57F3fZL-k_UrVPD2-101" style="edgeStyle=orthogonalEdgeStyle;rounded=0;orthogonalLoop=1;jettySize=auto;html=1;" edge="1" parent="1" source="Z9xd57F3fZL-k_UrVPD2-49" target="Z9xd57F3fZL-k_UrVPD2-99">
          <mxGeometry relative="1" as="geometry" />
        </mxCell>
        <mxCell id="Z9xd57F3fZL-k_UrVPD2-49" value="" style="ellipse;html=1;shape=endState;fillColor=#000000;strokeColor=#ff0000;" vertex="1" parent="1">
          <mxGeometry x="370" y="530" width="30" height="30" as="geometry" />
        </mxCell>
        <mxCell id="Z9xd57F3fZL-k_UrVPD2-61" style="edgeStyle=orthogonalEdgeStyle;rounded=0;orthogonalLoop=1;jettySize=auto;html=1;" edge="1" parent="1" source="Z9xd57F3fZL-k_UrVPD2-50" target="Z9xd57F3fZL-k_UrVPD2-51">
          <mxGeometry relative="1" as="geometry" />
        </mxCell>
        <mxCell id="Z9xd57F3fZL-k_UrVPD2-50" value="Màn hình Đăng kí" style="rounded=1;whiteSpace=wrap;html=1;arcSize=40;fontColor=#000000;fillColor=#ffffc0;strokeColor=#ff0000;" vertex="1" parent="1">
          <mxGeometry x="325" y="730" width="120" height="40" as="geometry" />
        </mxCell>
        <mxCell id="Z9xd57F3fZL-k_UrVPD2-62" style="edgeStyle=orthogonalEdgeStyle;rounded=0;orthogonalLoop=1;jettySize=auto;html=1;" edge="1" parent="1" source="Z9xd57F3fZL-k_UrVPD2-51" target="Z9xd57F3fZL-k_UrVPD2-52">
          <mxGeometry relative="1" as="geometry" />
        </mxCell>
        <mxCell id="Z9xd57F3fZL-k_UrVPD2-51" value="Nhập đầy đủ tài khoản, mật khẩu, SDT, địa chỉ, tên ngày tháng năm sinh...." style="rounded=1;whiteSpace=wrap;html=1;arcSize=40;fontColor=#000000;fillColor=#ffffc0;strokeColor=#ff0000;" vertex="1" parent="1">
          <mxGeometry x="312.5" y="800" width="145" height="70" as="geometry" />
        </mxCell>
        <mxCell id="Z9xd57F3fZL-k_UrVPD2-63" style="edgeStyle=orthogonalEdgeStyle;rounded=0;orthogonalLoop=1;jettySize=auto;html=1;" edge="1" parent="1" source="Z9xd57F3fZL-k_UrVPD2-52" target="Z9xd57F3fZL-k_UrVPD2-54">
          <mxGeometry relative="1" as="geometry" />
        </mxCell>
        <mxCell id="Z9xd57F3fZL-k_UrVPD2-67" style="edgeStyle=orthogonalEdgeStyle;rounded=0;orthogonalLoop=1;jettySize=auto;html=1;" edge="1" parent="1" source="Z9xd57F3fZL-k_UrVPD2-52" target="Z9xd57F3fZL-k_UrVPD2-53">
          <mxGeometry relative="1" as="geometry" />
        </mxCell>
        <mxCell id="Z9xd57F3fZL-k_UrVPD2-52" value="Đăng kí" style="rhombus;whiteSpace=wrap;html=1;fillColor=#ffffc0;strokeColor=#ff0000;" vertex="1" parent="1">
          <mxGeometry x="332.5" y="910" width="105" height="50" as="geometry" />
        </mxCell>
        <mxCell id="Z9xd57F3fZL-k_UrVPD2-74" style="edgeStyle=orthogonalEdgeStyle;rounded=0;orthogonalLoop=1;jettySize=auto;html=1;entryX=1;entryY=0.5;entryDx=0;entryDy=0;" edge="1" parent="1" source="Z9xd57F3fZL-k_UrVPD2-53" target="Z9xd57F3fZL-k_UrVPD2-50">
          <mxGeometry relative="1" as="geometry">
            <mxPoint x="565" y="710" as="targetPoint" />
            <Array as="points">
              <mxPoint x="565" y="750" />
            </Array>
          </mxGeometry>
        </mxCell>
        <mxCell id="Z9xd57F3fZL-k_UrVPD2-53" value="Thông báo Tài khoản, Email hoặc SDT đã có người đăng kí" style="rounded=1;whiteSpace=wrap;html=1;arcSize=40;fontColor=#000000;fillColor=#ffffc0;strokeColor=#ff0000;" vertex="1" parent="1">
          <mxGeometry x="497.5" y="910" width="135" height="50" as="geometry" />
        </mxCell>
        <mxCell id="Z9xd57F3fZL-k_UrVPD2-64" style="edgeStyle=orthogonalEdgeStyle;rounded=0;orthogonalLoop=1;jettySize=auto;html=1;" edge="1" parent="1" source="Z9xd57F3fZL-k_UrVPD2-54" target="Z9xd57F3fZL-k_UrVPD2-56">
          <mxGeometry relative="1" as="geometry" />
        </mxCell>
        <mxCell id="Z9xd57F3fZL-k_UrVPD2-54" value="Màn hình kích hoạt OTP" style="rounded=1;whiteSpace=wrap;html=1;arcSize=40;fontColor=#000000;fillColor=#ffffc0;strokeColor=#ff0000;" vertex="1" parent="1">
          <mxGeometry x="328" y="990" width="112.5" height="40" as="geometry" />
        </mxCell>
        <mxCell id="Z9xd57F3fZL-k_UrVPD2-66" style="edgeStyle=orthogonalEdgeStyle;rounded=0;orthogonalLoop=1;jettySize=auto;html=1;entryX=0.5;entryY=0;entryDx=0;entryDy=0;" edge="1" parent="1" source="Z9xd57F3fZL-k_UrVPD2-55" target="Z9xd57F3fZL-k_UrVPD2-58">
          <mxGeometry relative="1" as="geometry" />
        </mxCell>
        <mxCell id="Z9xd57F3fZL-k_UrVPD2-68" style="edgeStyle=orthogonalEdgeStyle;rounded=0;orthogonalLoop=1;jettySize=auto;html=1;" edge="1" parent="1" source="Z9xd57F3fZL-k_UrVPD2-55" target="Z9xd57F3fZL-k_UrVPD2-57">
          <mxGeometry relative="1" as="geometry" />
        </mxCell>
        <mxCell id="Z9xd57F3fZL-k_UrVPD2-55" value="Xác nhận OTP" style="rhombus;whiteSpace=wrap;html=1;fillColor=#ffffc0;strokeColor=#ff0000;" vertex="1" parent="1">
          <mxGeometry x="331.75" y="1140" width="105" height="50" as="geometry" />
        </mxCell>
        <mxCell id="Z9xd57F3fZL-k_UrVPD2-65" style="edgeStyle=orthogonalEdgeStyle;rounded=0;orthogonalLoop=1;jettySize=auto;html=1;" edge="1" parent="1" source="Z9xd57F3fZL-k_UrVPD2-56" target="Z9xd57F3fZL-k_UrVPD2-55">
          <mxGeometry relative="1" as="geometry" />
        </mxCell>
        <mxCell id="Z9xd57F3fZL-k_UrVPD2-56" value="Nhập OTP đủ 6 số" style="rounded=1;whiteSpace=wrap;html=1;arcSize=40;fontColor=#000000;fillColor=#ffffc0;strokeColor=#ff0000;" vertex="1" parent="1">
          <mxGeometry x="328" y="1060" width="112.5" height="40" as="geometry" />
        </mxCell>
        <mxCell id="Z9xd57F3fZL-k_UrVPD2-70" style="edgeStyle=orthogonalEdgeStyle;rounded=0;orthogonalLoop=1;jettySize=auto;html=1;entryX=1;entryY=0.5;entryDx=0;entryDy=0;" edge="1" parent="1" source="Z9xd57F3fZL-k_UrVPD2-57" target="Z9xd57F3fZL-k_UrVPD2-54">
          <mxGeometry relative="1" as="geometry">
            <mxPoint x="571.75" y="960" as="targetPoint" />
            <Array as="points">
              <mxPoint x="572.25" y="1010" />
            </Array>
          </mxGeometry>
        </mxCell>
        <mxCell id="Z9xd57F3fZL-k_UrVPD2-57" value="Thông báo OTP không chính xác" style="rounded=1;whiteSpace=wrap;html=1;arcSize=40;fontColor=#000000;fillColor=#ffffc0;strokeColor=#ff0000;" vertex="1" parent="1">
          <mxGeometry x="504.25" y="1140" width="135" height="50" as="geometry" />
        </mxCell>
        <mxCell id="Z9xd57F3fZL-k_UrVPD2-71" style="edgeStyle=orthogonalEdgeStyle;rounded=0;orthogonalLoop=1;jettySize=auto;html=1;entryX=0.5;entryY=0;entryDx=0;entryDy=0;" edge="1" parent="1" source="Z9xd57F3fZL-k_UrVPD2-58" target="Z9xd57F3fZL-k_UrVPD2-59">
          <mxGeometry relative="1" as="geometry" />
        </mxCell>
        <mxCell id="Z9xd57F3fZL-k_UrVPD2-58" value="Màn hình Đăng nhập" style="rounded=1;whiteSpace=wrap;html=1;arcSize=40;fontColor=#000000;fillColor=#ffffc0;strokeColor=#ff0000;" vertex="1" parent="1">
          <mxGeometry x="328" y="1240" width="112.5" height="40" as="geometry" />
        </mxCell>
        <mxCell id="Z9xd57F3fZL-k_UrVPD2-59" value="" style="ellipse;html=1;shape=endState;fillColor=#000000;strokeColor=#ff0000;" vertex="1" parent="1">
          <mxGeometry x="369.25" y="1310" width="30" height="30" as="geometry" />
        </mxCell>
        <mxCell id="Z9xd57F3fZL-k_UrVPD2-96" style="edgeStyle=orthogonalEdgeStyle;rounded=0;orthogonalLoop=1;jettySize=auto;html=1;entryX=0.5;entryY=0;entryDx=0;entryDy=0;" edge="1" parent="1" source="Z9xd57F3fZL-k_UrVPD2-75" target="Z9xd57F3fZL-k_UrVPD2-94">
          <mxGeometry relative="1" as="geometry" />
        </mxCell>
        <mxCell id="Z9xd57F3fZL-k_UrVPD2-75" value="" style="ellipse;html=1;shape=endState;fillColor=#000000;strokeColor=#ff0000;" vertex="1" parent="1">
          <mxGeometry x="940" y="-20" width="30" height="30" as="geometry" />
        </mxCell>
        <mxCell id="Z9xd57F3fZL-k_UrVPD2-85" style="edgeStyle=orthogonalEdgeStyle;rounded=0;orthogonalLoop=1;jettySize=auto;html=1;" edge="1" parent="1" source="Z9xd57F3fZL-k_UrVPD2-76" target="Z9xd57F3fZL-k_UrVPD2-80">
          <mxGeometry relative="1" as="geometry" />
        </mxCell>
        <mxCell id="Z9xd57F3fZL-k_UrVPD2-76" value="Màn hình Cài đặt" style="rounded=1;whiteSpace=wrap;html=1;arcSize=40;fontColor=#000000;fillColor=#ffffc0;strokeColor=#ff0000;" vertex="1" parent="1">
          <mxGeometry x="895" y="170" width="120" height="40" as="geometry" />
        </mxCell>
        <mxCell id="Z9xd57F3fZL-k_UrVPD2-86" style="edgeStyle=orthogonalEdgeStyle;rounded=0;orthogonalLoop=1;jettySize=auto;html=1;" edge="1" parent="1" source="Z9xd57F3fZL-k_UrVPD2-80" target="Z9xd57F3fZL-k_UrVPD2-81">
          <mxGeometry relative="1" as="geometry" />
        </mxCell>
        <mxCell id="Z9xd57F3fZL-k_UrVPD2-80" value="Nhấn Đăng xuất" style="rounded=1;whiteSpace=wrap;html=1;arcSize=40;fontColor=#000000;fillColor=#ffffc0;strokeColor=#ff0000;" vertex="1" parent="1">
          <mxGeometry x="895" y="250" width="120" height="40" as="geometry" />
        </mxCell>
        <mxCell id="Z9xd57F3fZL-k_UrVPD2-89" style="edgeStyle=orthogonalEdgeStyle;rounded=0;orthogonalLoop=1;jettySize=auto;html=1;entryX=1;entryY=0.5;entryDx=0;entryDy=0;" edge="1" parent="1" source="Z9xd57F3fZL-k_UrVPD2-81" target="Z9xd57F3fZL-k_UrVPD2-76">
          <mxGeometry relative="1" as="geometry">
            <mxPoint x="1090" y="180" as="targetPoint" />
            <Array as="points">
              <mxPoint x="1110" y="352" />
              <mxPoint x="1110" y="190" />
            </Array>
          </mxGeometry>
        </mxCell>
        <mxCell id="Z9xd57F3fZL-k_UrVPD2-107" style="edgeStyle=orthogonalEdgeStyle;rounded=0;orthogonalLoop=1;jettySize=auto;html=1;" edge="1" parent="1" source="Z9xd57F3fZL-k_UrVPD2-81" target="Z9xd57F3fZL-k_UrVPD2-106">
          <mxGeometry relative="1" as="geometry" />
        </mxCell>
        <mxCell id="Z9xd57F3fZL-k_UrVPD2-81" value="Bạn có muốn đăng xuất không?" style="rhombus;whiteSpace=wrap;html=1;fillColor=#ffffc0;strokeColor=#ff0000;" vertex="1" parent="1">
          <mxGeometry x="902.5" y="320" width="105" height="64" as="geometry" />
        </mxCell>
        <mxCell id="Z9xd57F3fZL-k_UrVPD2-88" style="edgeStyle=orthogonalEdgeStyle;rounded=0;orthogonalLoop=1;jettySize=auto;html=1;entryX=0.5;entryY=0;entryDx=0;entryDy=0;" edge="1" parent="1" source="Z9xd57F3fZL-k_UrVPD2-82" target="Z9xd57F3fZL-k_UrVPD2-83">
          <mxGeometry relative="1" as="geometry" />
        </mxCell>
        <mxCell id="Z9xd57F3fZL-k_UrVPD2-82" value="Màn hình Đăng nhập" style="rounded=1;whiteSpace=wrap;html=1;arcSize=40;fontColor=#000000;fillColor=#ffffc0;strokeColor=#ff0000;" vertex="1" parent="1">
          <mxGeometry x="895" y="499" width="120" height="40" as="geometry" />
        </mxCell>
        <mxCell id="Z9xd57F3fZL-k_UrVPD2-83" value="" style="ellipse;html=1;shape=endState;fillColor=#000000;strokeColor=#ff0000;" vertex="1" parent="1">
          <mxGeometry x="940" y="561" width="30" height="30" as="geometry" />
        </mxCell>
        <mxCell id="Z9xd57F3fZL-k_UrVPD2-90" value="Không" style="text;strokeColor=none;fillColor=none;align=left;verticalAlign=top;spacingLeft=4;spacingRight=4;overflow=hidden;rotatable=0;points=[[0,0.5],[1,0.5]];portConstraint=eastwest;" vertex="1" parent="1">
          <mxGeometry x="1015" y="330" width="100" height="26" as="geometry" />
        </mxCell>
        <mxCell id="Z9xd57F3fZL-k_UrVPD2-91" value="Có" style="text;strokeColor=none;fillColor=none;align=left;verticalAlign=top;spacingLeft=4;spacingRight=4;overflow=hidden;rotatable=0;points=[[0,0.5],[1,0.5]];portConstraint=eastwest;" vertex="1" parent="1">
          <mxGeometry x="960" y="384" width="100" height="26" as="geometry" />
        </mxCell>
        <mxCell id="Z9xd57F3fZL-k_UrVPD2-97" style="edgeStyle=orthogonalEdgeStyle;rounded=0;orthogonalLoop=1;jettySize=auto;html=1;" edge="1" parent="1" source="Z9xd57F3fZL-k_UrVPD2-94" target="Z9xd57F3fZL-k_UrVPD2-95">
          <mxGeometry relative="1" as="geometry" />
        </mxCell>
        <mxCell id="Z9xd57F3fZL-k_UrVPD2-94" value="Màn hình Trang chủ" style="rounded=1;whiteSpace=wrap;html=1;arcSize=40;fontColor=#000000;fillColor=#ffffc0;strokeColor=#ff0000;" vertex="1" parent="1">
          <mxGeometry x="895" y="40" width="120" height="40" as="geometry" />
        </mxCell>
        <mxCell id="Z9xd57F3fZL-k_UrVPD2-98" style="edgeStyle=orthogonalEdgeStyle;rounded=0;orthogonalLoop=1;jettySize=auto;html=1;" edge="1" parent="1" source="Z9xd57F3fZL-k_UrVPD2-95" target="Z9xd57F3fZL-k_UrVPD2-76">
          <mxGeometry relative="1" as="geometry" />
        </mxCell>
        <mxCell id="Z9xd57F3fZL-k_UrVPD2-95" value="Nhấn Cài đặt" style="rounded=1;whiteSpace=wrap;html=1;arcSize=40;fontColor=#000000;fillColor=#ffffc0;strokeColor=#ff0000;" vertex="1" parent="1">
          <mxGeometry x="895" y="100" width="120" height="40" as="geometry" />
        </mxCell>
        <mxCell id="Z9xd57F3fZL-k_UrVPD2-102" style="edgeStyle=orthogonalEdgeStyle;rounded=0;orthogonalLoop=1;jettySize=auto;html=1;" edge="1" parent="1" source="Z9xd57F3fZL-k_UrVPD2-99" target="Z9xd57F3fZL-k_UrVPD2-100">
          <mxGeometry relative="1" as="geometry" />
        </mxCell>
        <mxCell id="Z9xd57F3fZL-k_UrVPD2-99" value="Màn hình Đăng nhập" style="rounded=1;whiteSpace=wrap;html=1;arcSize=40;fontColor=#000000;fillColor=#ffffc0;strokeColor=#ff0000;" vertex="1" parent="1">
          <mxGeometry x="324.25" y="600" width="120" height="40" as="geometry" />
        </mxCell>
        <mxCell id="Z9xd57F3fZL-k_UrVPD2-103" style="edgeStyle=orthogonalEdgeStyle;rounded=0;orthogonalLoop=1;jettySize=auto;html=1;" edge="1" parent="1" source="Z9xd57F3fZL-k_UrVPD2-100" target="Z9xd57F3fZL-k_UrVPD2-50">
          <mxGeometry relative="1" as="geometry" />
        </mxCell>
        <mxCell id="Z9xd57F3fZL-k_UrVPD2-100" value="Nhấn Đăng kí" style="rounded=1;whiteSpace=wrap;html=1;arcSize=40;fontColor=#000000;fillColor=#ffffc0;strokeColor=#ff0000;" vertex="1" parent="1">
          <mxGeometry x="324.25" y="660" width="120" height="40" as="geometry" />
        </mxCell>
        <mxCell id="Z9xd57F3fZL-k_UrVPD2-104" value="Sai" style="text;strokeColor=none;fillColor=none;align=left;verticalAlign=top;spacingLeft=4;spacingRight=4;overflow=hidden;rotatable=0;points=[[0,0.5],[1,0.5]];portConstraint=eastwest;" vertex="1" parent="1">
          <mxGeometry x="437.5" y="1130" width="100" height="26" as="geometry" />
        </mxCell>
        <mxCell id="Z9xd57F3fZL-k_UrVPD2-105" value="Đúng" style="text;strokeColor=none;fillColor=none;align=left;verticalAlign=top;spacingLeft=4;spacingRight=4;overflow=hidden;rotatable=0;points=[[0,0.5],[1,0.5]];portConstraint=eastwest;" vertex="1" parent="1">
          <mxGeometry x="390" y="1190" width="100" height="26" as="geometry" />
        </mxCell>
        <mxCell id="Z9xd57F3fZL-k_UrVPD2-108" style="edgeStyle=orthogonalEdgeStyle;rounded=0;orthogonalLoop=1;jettySize=auto;html=1;" edge="1" parent="1" source="Z9xd57F3fZL-k_UrVPD2-106" target="Z9xd57F3fZL-k_UrVPD2-82">
          <mxGeometry relative="1" as="geometry" />
        </mxCell>
        <mxCell id="Z9xd57F3fZL-k_UrVPD2-106" value="Thông báo đăng xuất thành công" style="rounded=1;whiteSpace=wrap;html=1;arcSize=40;fontColor=#000000;fillColor=#ffffc0;strokeColor=#ff0000;" vertex="1" parent="1">
          <mxGeometry x="895" y="420" width="120" height="40" as="geometry" />
        </mxCell>
        <mxCell id="Z9xd57F3fZL-k_UrVPD2-109" style="edgeStyle=orthogonalEdgeStyle;rounded=0;orthogonalLoop=1;jettySize=auto;html=1;" edge="1" parent="1" source="Z9xd57F3fZL-k_UrVPD2-110" target="Z9xd57F3fZL-k_UrVPD2-113">
          <mxGeometry relative="1" as="geometry" />
        </mxCell>
        <mxCell id="Z9xd57F3fZL-k_UrVPD2-110" value="" style="ellipse;html=1;shape=endState;fillColor=#000000;strokeColor=#ff0000;" vertex="1" parent="1">
          <mxGeometry x="932.5" y="670" width="30" height="30" as="geometry" />
        </mxCell>
        <mxCell id="Z9xd57F3fZL-k_UrVPD2-111" value="Màn hình Đăng kí" style="rounded=1;whiteSpace=wrap;html=1;arcSize=40;fontColor=#000000;fillColor=#ffffc0;strokeColor=#ff0000;" vertex="1" parent="1">
          <mxGeometry x="887.5" y="870" width="120" height="40" as="geometry" />
        </mxCell>
        <mxCell id="Z9xd57F3fZL-k_UrVPD2-112" style="edgeStyle=orthogonalEdgeStyle;rounded=0;orthogonalLoop=1;jettySize=auto;html=1;" edge="1" parent="1" source="Z9xd57F3fZL-k_UrVPD2-113" target="Z9xd57F3fZL-k_UrVPD2-115">
          <mxGeometry relative="1" as="geometry" />
        </mxCell>
        <mxCell id="Z9xd57F3fZL-k_UrVPD2-113" value="Màn hình Đăng nhập" style="rounded=1;whiteSpace=wrap;html=1;arcSize=40;fontColor=#000000;fillColor=#ffffc0;strokeColor=#ff0000;" vertex="1" parent="1">
          <mxGeometry x="886.75" y="740" width="120" height="40" as="geometry" />
        </mxCell>
        <mxCell id="Z9xd57F3fZL-k_UrVPD2-114" style="edgeStyle=orthogonalEdgeStyle;rounded=0;orthogonalLoop=1;jettySize=auto;html=1;" edge="1" parent="1" source="Z9xd57F3fZL-k_UrVPD2-115" target="Z9xd57F3fZL-k_UrVPD2-111">
          <mxGeometry relative="1" as="geometry" />
        </mxCell>
        <mxCell id="Z9xd57F3fZL-k_UrVPD2-115" value="Nhấn Đăng kí" style="rounded=1;whiteSpace=wrap;html=1;arcSize=40;fontColor=#000000;fillColor=#ffffc0;strokeColor=#ff0000;" vertex="1" parent="1">
          <mxGeometry x="886.75" y="800" width="120" height="40" as="geometry" />
        </mxCell>
      </root>
    </mxGraphModel>
  </diagram>
</mxfile>
